#!OML:ASF F:\twosubjects\two\Thursday\Session 1\Rory.ASF
:FULLY-SPECIFIED
:DEGREES
337
root 7.58418 10.557 12.328 160.245 -11.6144 184.424
lowerback 40.6068 4.67731 -0.55076
upperback 13.6419 0.538882 -1.18649
thorax -4.3604 -1.78656 -1.01097
lowerneck -9.84478 -8.58521 -8.7794
upperneck -21.3053 -12.0023 16.6594
head -3.11967 -7.45438 6.55847
rclavicle -5.56597e-015 7.95139e-015
rhumerus -6.03782 27.9719 -67.4193
rradius 77.2413
rwrist 4.54275
rhand -32.9384 38.7525
rfingers 7.12502
rthumb -6.15471 8.86191
lclavicle -5.56597e-015 7.95139e-015
lhumerus -10.5887 -29.9114 50.1385
lradius 97.1993
lwrist -9.77358
lhand -21.1023 18.0186
lfingers 7.12502
lthumb 5.27557 47.9329
rfemur -58.1073 -5.93869 -9.36707
rtibia 77.876
rfoot 12.0532 -8.94426
rtoes -10.2473
lfemur -62.431 24.4156 6.3927
ltibia 71.1332
lfoot 20.9406 4.51976
ltoes 15.8745
338
root 7.58407 10.5514 12.3143 160.414 -11.7687 184.207
lowerback 40.6832 4.244 -0.135296
upperback 13.5471 0.129886 -1.83992
thorax -4.49041 -1.92718 -1.7605
lowerneck -9.78353 -8.54868 -8.42755
upperneck -21.184 -11.9499 16.9402
head -3.09261 -7.46496 6.58621
rclavicle -1.59028e-015 7.15625e-014
rhumerus -6.01877 28.0056 -68.4899
rradius 77.0198
rwrist 4.83403
rhand -32.7835 38.6564
rfingers 7.12502
rthumb -6.00516 8.76147
lclavicle -1.59028e-015 7.15625e-014
lhumerus -10.7814 -30.0202 49.3532
lradius 97.3519
lwrist -9.52796
lhand -21.874 18.182
lfingers 7.12502
lthumb 4.5304 48.1136
rfemur -58.226 -5.85916 -9.73289
rtibia 78.0072
rfoot 12.0901 -9.11662
rtoes -9.93169
lfemur -62.6135 24.3005 6.11968
ltibia 71.2006
lfoot 20.8389 4.39169
ltoes 15.3001
339
root 7.59298 10.5644 12.305 160.257 -11.7285 183.639
lowerback 40.8864 4.92559 -1.18004
upperback 13.6316 0.537664 -1.31686
thorax -4.46701 -1.81943 -0.822987
lowerneck -9.41012 -8.62975 -8.82434
upperneck -21.6818 -12.0751 16.7244
head -3.28388 -7.52095 6.63066
rclavicle 4.6118e-014 -2.8625e-014
rhumerus -5.89007 28.0856 -67.8075
rradius 77.1074
rwrist 4.9876
rhand -32.6781 38.2262
rfingers 7.12502
rthumb -5.90341 8.32846
lclavicle 4.6118e-014 -2.8625e-014
lhumerus -10.7755 -29.9114 50.271
lradius 97.2686
lwrist -9.38301
lhand -22.441 18.2678
lfingers 7.12502
lthumb 3.98295 48.2103
rfemur -58.0716 -5.42131 -10.3207
rtibia 78.1114
rfoot 11.7696 -9.59472
rtoes -7.09582
lfemur -62.0646 24.2722 5.80005
ltibia 71.2333
lfoot 20.6208 4.27456
ltoes 14.8978
340
root 7.59871 10.5708 12.2972 160.155 -11.7701 183.408
lowerback 41.3622 4.75475 -0.98042
upperback 13.4437 0.351184 -1.7755
thorax -4.81218 -1.87711 -1.33295
lowerneck -8.9854 -8.57885 -8.43537
upperneck -21.7541 -12.0152 16.7963
head -3.39466 -7.52714 6.62325
rclavicle 1.51076e-014 -4.77083e-015
rhumerus -6.33431 28.0526 -68.7456
rradius 77.2779
rwrist 5.4681
rhand -32.5292 37.0032
rfingers 7.12502
rthumb -5.75966 7.10143
lclavicle 1.51076e-014 -4.77083e-015
lhumerus -10.9634 -30.1244 49.881
lradius 97.2774
lwrist -9.31342
lhand -22.403 18.3396
lfingers 7.12502
lthumb 4.01964 48.2815
rfemur -57.9366 -5.31089 -10.5159
rtibia 78.2067
rfoot 11.7046 -9.6159
rtoes -5.93871
lfemur -61.8039 24.1749 5.69682
ltibia 71.2588
lfoot 20.4539 4.30443
ltoes 15.2402
341
root 7.60994 10.5743 12.291 159.92 -11.6521 183.446
lowerback 41.5068 4.88145 -1.02333
upperback 13.5703 0.420198 -1.68136
thorax -4.71298 -1.88154 -1.23888
lowerneck -8.81723 -8.52294 -8.42315
upperneck -21.9337 -11.9579 16.7121
head -3.49122 -7.50961 6.62154
rclavicle -1.11319e-014 2.22639e-014
rhumerus -6.07612 28.0475 -68.6794
rradius 77.3508
rwrist 6.07026
rhand -32.3329 36.5724
rfingers 7.12502
rthumb -5.57018 6.66564
lclavicle -1.11319e-014 2.22639e-014
lhumerus -10.7824 -29.8119 50.041
lradius 97.0389
lwrist -9.43512
lhand -22.1246 18.3491
lfingers 7.12502
lthumb 4.28844 48.2857
rfemur -57.7216 -5.05241 -10.3256
rtibia 78.2402
rfoot 11.9049 -9.23008
rtoes -7.83384
lfemur -61.4407 24.2256 5.94592
ltibia 71.2536
lfoot 20.4689 4.32147
ltoes 15.8763
342
root 7.61597 10.5757 12.2856 159.566 -11.3626 184.095
lowerback 41.632 4.96929 -0.609067
upperback 13.7161 0.662874 -1.23553
thorax -4.57552 -1.8024 -1.07326
lowerneck -8.70497 -8.51741 -8.55059
upperneck -22.2559 -11.9809 16.5926
head -3.60902 -7.53078 6.63389
rclavicle 1.66979e-014 -1.59028e-014
rhumerus -5.89656 28.0133 -68.2917
rradius 77.482
rwrist 6.66616
rhand -32.1833 37.453
rfingers 7.12502
rthumb -5.4257 7.54243
lclavicle 1.66979e-014 -1.59028e-014
lhumerus -10.4636 -29.4362 50.5448
lradius 96.7008
lwrist -9.55774
lhand -21.9519 18.161
lfingers 7.12502
lthumb 4.45518 48.0941
rfemur -57.5249 -4.63024 -9.50967
rtibia 78.2845
rfoot 11.9189 -9.32042
rtoes -9.1417
lfemur -61.1611 24.3814 6.81513
ltibia 71.2433
lfoot 20.7506 4.25704
ltoes 16.5668
